<svg xmlns="http://www.w3.org/2000/svg" viewBox="0 0 64 64" id="euro"><g data-name="Layer 6"><circle cx="29" cy="32" r="27" fill="#fcc63f"></circle><path fill="#e4af2e" d="M35 5a27.251 27.251 0 0 0-3 .17 27 27 0 0 1 0 53.66A27 27 0 1 0 35 5Z"></path><circle cx="29" cy="32" r="21" fill="#ffd956"></circle><path fill="#ce9926" d="M51.446 17h6q-.693-1.035-1.478-2h-6q.785.965 1.478 2zm8.211 4h-5.993c.291.653.553 1.321.793 2h6q-.357-1.02-.8-2zm1.873 6h-5.994c.123.658.218 1.326.292 2h6a25.348 25.348 0 0 0-.298-2zm.445 6h-6q-.036 1.01-.148 2h6c.073-.66.123-1.327.148-2zm-1.181 7h-6.006a29.158 29.158 0 0 1-.7 2h6c.253-.656.496-1.32.706-2zm-2.703 6h-6.006q-.627 1.032-1.342 2h6c.479-.646.93-1.312 1.348-2zm-4.953 6h-6.011a27.116 27.116 0 0 1-2.481 2h6a27.167 27.167 0 0 0 2.492-2zm-6.011-40h6.011a27.167 27.167 0 0 0-2.495-2h-6a27.116 27.116 0 0 1 2.484 2z"></path><path fill="#e4af2e" d="M31.877 21a8.648 8.648 0 0 1 7.266 4.514 1 1 0 1 0 1.714-1.028A10.618 10.618 0 0 0 31.877 19c-5.191 0-9.542 4.276-10.693 10h-2.307a1 1 0 1 0 0 2h2.043c-.022.331-.043.662-.043 1s.021.669.043 1h-2.043a1 1 0 1 0 0 2h2.307c1.151 5.724 5.5 10 10.693 10a10.6 10.6 0 0 0 8.848-5.268 1 1 0 0 0-1.7-1.062A8.5 8.5 0 0 1 31.877 43c-4.111 0-7.579-3.39-8.651-8h8.651a1 1 0 1 0 0-2h-8.959c-.024-.33-.041-.662-.041-1s.017-.67.041-1h8.959a1 1 0 0 0 0-2h-8.651c1.074-4.61 4.54-8 8.651-8zM15 29h-2a1 1 0 0 0 0 2h2a1 1 0 0 0 0-2zm0 4h-2a1 1 0 0 0 0 2h2a1 1 0 0 0 0-2zm28-2h2a1 1 0 0 0 0-2h-2a1 1 0 0 0 0 2zm2 2h-2a1 1 0 0 0 0 2h2a1 1 0 0 0 0-2z"></path><path fill="#ffe89a" d="M29 54a22 22 0 1 1 6.886-42.9 1 1 0 0 1-.626 1.9 20.02 20.02 0 1 0 5.482 2.809 1 1 0 0 1 1.176-1.618A22 22 0 0 1 29 54Z"></path></g></svg>